<svg enable-background="new 0 0 107.6 101.9" viewBox="0 0 107.6 101.9" xmlns="http://www.w3.org/2000/svg"><g fill="#2f3139"><path d="m63.5 44.9 1.1-1.1c.2-.2.5-.2.7 0l5 5c.2.2.2.5 0 .7l-1.1 1.1c-.2.2-.5.2-.7 0l-5-5c-.2-.2-.2-.5 0-.7z"/><path d="m53.4 34.8 1.1-1.1c.2-.2.5-.2.7 0l5 5c.2.2.2.5 0 .7l-1.1 1.1c-.2.2-.5.2-.7 0l-5-5c-.2-.2-.2-.5 0-.7z"/><path d="m30.9 47.7 1.1-1.1c.2-.2.5-.2.7 0l25.7 25.1c.2.2.2.5 0 .7l-1.1 1.1c-.2.2-.5.2-.7 0l-25.7-25.1c-.2-.2-.2-.5 0-.7-.1.1-.1 0 0 0z"/><path d="m36.4 41.4 1.1-1.1c.2-.1.5-.1.6 0l25.7 25.1c.2.2.2.5 0 .6l-1.1 1.1c-.2.2-.5.2-.7 0l-25.6-25.1c-.1-.2-.1-.4 0-.6z"/><path d="m24.9 54.2 1.1-1.1c.2-.2.5-.2.7 0l25.7 25.1c.2.2.2.5 0 .7l-1.2 1.1c-.2.2-.5.2-.7 0l-25.6-25.2c-.2-.2-.2-.4 0-.6z"/><path d="m73.6 55.2 1.1-1.1c.2-.2.5-.2.7 0l5 5c.2.2.2.5 0 .7l-1.1 1.1c-.2.2-.5.2-.7 0l-5-5c-.1-.2-.1-.5 0-.7z"/><path d="m102.3 38.5-10.5-10.6-.9.9c-1.2 1.3-2.7 2.2-4.4 2.5-.8.1-1.5.2-2.3.2-.5 0-1 0-1.5-.1-5.5-.6-9.6-5.3-9.4-10.8 0-3.1.6-4.7 2.7-6.7l.9-.9-10.6-10.6c-.2-.2-.5-.2-.6 0l-60.4 60.4c-.2.2-.2.5 0 .6l10.5 10.6.9-.9c1-1.1 2.3-1.9 3.7-2.3.8-.2 1.7-.3 2.5-.3 6.2-.1 11.3 4.7 11.4 10.9v.4c.1 2.4-.9 4.7-2.7 6.3l-.9.9 10.5 10.5c.2.2.5.2.7 0l58-58h-.5l-1-2-56.4 56.5c-.2.2-.5.2-.7 0l-7-7 .6-.8c1.4-1.9 1.9-3.8 1.9-6.8.2-6.7-4.8-12.5-11.4-13.3-.7-.1-1.3-.1-2-.2-1.7-.1-3.3.2-4.9.8-.7.3-1.3.7-1.9 1.1l-.8.6-7-7c-.2-.2-.2-.5 0-.7l35.5-35.6c.2-.2.5-.2.6 0l4.3 4.3c.2.2.5.2.7 0l1.1-1.1c.2-.2.2-.5 0-.7l-4.3-4.4c-.2-.2-.2-.5 0-.6l18.9-18.7c.2-.2.5-.2.7 0l7 7-.6.8c-1.4 1.9-1.9 3.8-1.9 6.8-.2 5.6 3.3 10.6 8.5 12.5 1.6.6 3.2.9 4.9.9 3 0 4.9-.5 6.8-1.9l.8-.6 7 7c.2.2.2.5 0 .6l-3 3h.1l1.6 1.8 4.9-4.9s0-.3-.1-.4z"/></g></svg>