<?xml version="1.0" encoding="utf-8"?>
<!-- Generator: Adobe Illustrator 16.0.0, SVG Export Plug-In . SVG Version: 6.00 Build 0)  -->
<!DOCTYPE svg PUBLIC "-//W3C//DTD SVG 1.1//EN" "http://www.w3.org/Graphics/SVG/1.1/DTD/svg11.dtd">
<svg version="1.1" id="Layer_1" xmlns="http://www.w3.org/2000/svg" xmlns:xlink="http://www.w3.org/1999/xlink" x="0px" y="0px"
	 width="2000px" height="2000px" viewBox="0 0 2000 2000" enable-background="new 0 0 2000 2000" xml:space="preserve">
<linearGradient id="SVGID_1_" gradientUnits="userSpaceOnUse" x1="4.882813e-004" y1="4.882813e-004" x2="2000.0009" y2="2000.0009">
	<stop  offset="0" style="stop-color:#FF805F"/>
	<stop  offset="0.5" style="stop-color:#B74BDD"/>
	<stop  offset="1" style="stop-color:#0379FF"/>
</linearGradient>
<rect fill="url(#SVGID_1_)" width="2000" height="2000"/>
<path fill="#FFFFFF" d="M625.238,1206.201c-2.715,0-2.921,0.209-2.921,4.802v31.319c0,11.691,0,24.639,14.614,24.639
	c2.922,0,6.263-1.463,8.769-3.135c2.087,0.625,3.342,2.924,2.923,5.432c-5.846,6.259-17.119,12.107-30.067,12.107
	c-17.329,0-23.385-10.021-23.385-23.803V1211c0-4.384-0.209-4.799-3.968-4.799h-6.471c-2.297-0.837-2.923-5.014-1.253-6.474
	c6.472-2.298,12.321-6.056,17.329-9.396c3.757-2.714,8.979-7.098,15.45-16.285c1.463-0.837,5.219-0.627,6.265,1.043v15.66
	c0,3.967,0.208,4.174,3.965,4.174h18.585c1.045,0.834,1.669,2.092,1.669,3.969c0,2.295-0.626,6.054-2.713,7.309H625.238
	L625.238,1206.201z M684.117,1228.959c-4.804,0-5.221,0.42-5.221,3.759c0,15.659,10.023,30.9,29.441,30.9
	c5.845,0,13.781-1.252,19.416-10.856c2.297-0.418,5.432,1.252,5.432,4.801c-8.563,17.748-24.013,23.805-36.541,23.805
	c-28.185,0-43.431-19.838-43.431-42.594c0-26.311,19.003-46.771,45.103-46.771c21.712,0,33.406,13.992,33.406,30.064
	c0,3.969-1.045,6.892-7.517,6.892H684.117L684.117,1228.959z M697.896,1219.771c2.925,0,6.266-0.416,8.561-1.879
	c1.045-0.624,1.462-2.716,1.462-4.802c0-6.889-3.966-11.482-11.065-11.482c-8.769,0-16.286,8.353-16.286,15.034
	c0,2.92,2.924,3.129,9.605,3.129H697.896z M824.632,1202.024c-6.053,0.834-9.184,1.668-12.527,3.756
	c-2.923,1.883-10.858,10.653-15.659,16.704c-2.504,3.341-3.967,5.22-3.967,6.265c0,1.253,2.503,5.43,4.384,8.143l14.2,21.089
	c7.515,10.856,11.483,12.739,18.581,13.569l2.298,0.208c1.669,1.465,1.669,6.478-0.626,7.311
	c-9.188-0.417-17.331-0.627-25.266-0.627c-8.35,0-18.164,0.21-27.77,0.627c-1.877-0.833-2.294-5.846-0.627-7.311l4.594-0.832
	c2.924-0.627,3.548-1.462,3.548-2.296c0-0.837-0.833-2.925-2.504-5.641c-2.922-4.593-5.639-8.976-8.977-13.777
	c-2.924,4.386-5.847,9.185-8.561,13.777c-1.674,2.923-2.504,4.804-2.504,6.058c0,1.044,0.831,1.673,3.755,2.087l3.344,0.624
	c1.668,1.256,1.249,6.478-0.419,7.311c-6.054-0.417-12.317-0.627-18.791-0.627c-4.801,0-9.814,0.21-16.286,0.627
	c-1.879-1.046-2.505-5.638-0.417-7.311l5.219-0.832c3.547-0.627,7.936-2.089,9.813-4.175c3.133-3.133,14.198-17.539,17.122-21.924
	c1.253-2.088,1.88-3.55,1.88-4.592c0-0.836-1.669-3.759-6.682-11.066l-11.276-17.329c-4.174-6.473-8.143-8.145-12.734-9.188
	l-4.385-1.045c-1.463-1.046-1.463-6.68,0.624-7.308c8.146,0.418,13.781,0.628,25.266,0.628c7.517,0,14.826-0.21,22.341-0.628
	c2.504,0.836,2.715,6.055,0.418,7.308l-2.504,0.626c-1.67,0.21-3.133,0.834-3.133,1.462c0,0.836,0.418,1.879,1.878,4.386
	c2.716,4.595,5.638,8.561,8.565,12.735c2.085-2.925,5.635-7.936,8.975-12.944c1.253-1.88,1.461-2.716,1.461-3.759
	c0-0.836-1.252-1.461-3.341-1.88l-2.296-0.626c-1.877-1.253-1.463-6.472,0.626-7.308c6.054,0.418,11.485,0.628,19.002,0.628
	c5.219,0,10.646-0.21,15.868-0.628c2.087,0.628,2.296,6.055,0.419,7.308L824.632,1202.024z M875.994,1206.201
	c-2.714,0-2.921,0.209-2.921,4.802v31.319c0,11.691,0,24.639,14.612,24.639c2.925,0,6.265-1.463,8.774-3.135
	c2.084,0.625,3.339,2.924,2.921,5.432c-5.847,6.259-17.122,12.107-30.064,12.107c-17.333,0-23.388-10.021-23.388-23.803V1211
	c0-4.384-0.209-4.799-3.967-4.799h-6.471c-2.3-0.837-2.924-5.014-1.254-6.474c6.474-2.298,12.319-6.056,17.329-9.396
	c3.76-2.714,8.978-7.098,15.451-16.285c1.463-0.837,5.221-0.627,6.266,1.043v15.66c0,3.967,0.206,4.174,3.964,4.174h18.584
	c1.046,0.834,1.67,2.092,1.67,3.969c0,2.295-0.624,6.054-2.713,7.309H875.994L875.994,1206.201z M907.52,1264.451
	c0-9.812,7.521-17.326,16.914-17.326c10.023,0,16.915,8.352,16.915,17.326c0,9.609-6.892,16.916-16.915,16.916
	C916.081,1281.367,907.52,1274.686,907.52,1264.451z M1032.169,1195.553c2.715,2.296,4.385,5.221,4.385,10.857
	c0,6.266-2.92,11.9-5.427,11.9c-1.046,0-2.922-0.419-3.344-1.043c-5.845-8.354-13.986-15.662-21.504-15.662
	c-13.571,0-20.881,15.451-20.881,29.859c0,16.493,10.651,33.197,29.86,33.197c7.725,0,13.991-2.506,18.584-10.23
	c2.504-0.208,5.429,1.253,5.429,4.592c-4.591,10.44-17.124,22.342-36.958,22.342c-26.31,0-44.263-17.539-44.263-42.178
	c0-29.648,24.011-47.186,52.199-47.186C1017.347,1192.002,1026.532,1193.466,1032.169,1195.553z M1044.9,1238.355
	c-0.414-29.857,23.387-46.353,48.027-46.353c24.639,0,46.769,15.033,46.769,44.474c0,30.486-22.34,44.891-48.023,44.891
	C1066.822,1281.367,1044.9,1267.17,1044.9,1238.355z M1074.969,1233.761c0,21.924,6.887,38.001,19.001,38.001
	c11.899,0,15.659-13.569,15.659-32.362c-0.418-20.253-6.054-37.792-17.956-37.792
	C1082.485,1201.607,1074.969,1211.003,1074.969,1233.761z M1163.705,1223.113c0-8.352,0-10.65-3.967-13.363l-2.925-1.878
	c-1.46-1.256-1.46-5.014,0-6.265c9.604-2.715,24.011-8.351,30.483-12.528c1.67,0,2.923,0.628,3.758,1.879
	c-0.42,4.178-0.835,7.1-0.835,8.979c0,1.462,0.415,2.088,2.089,2.507c5.637-3.551,11.693-10.441,20.462-10.441
	c5.637,0,11.482,4.386,11.482,12.318c0,9.605-6.685,13.571-13.361,13.571c-2.925,0-5.429-1.253-8.143-3.758
	c-4.804-3.968-6.687-4.174-7.937-4.174c-2.923,0-3.967,4.592-3.967,12.524v32.155c0,14.618,0.839,16.286,7.727,16.913l6.681,0.627
	c1.67,1.253,1.67,6.056-0.212,7.307c-10.02-0.418-18.371-0.625-28.182-0.625c-8.564,0-17.752,0.207-24.643,0.625
	c-1.881-1.251-1.881-6.054-0.211-7.307l3.972-0.418c6.888-0.834,7.722-2.504,7.722-17.122v-31.526H1163.705z M1271.437,1206.201
	c-2.715,0-2.923,0.209-2.923,4.802v31.319c0,11.691,0,24.639,14.615,24.639c2.922,0,6.265-1.463,8.771-3.135
	c2.087,0.625,3.34,2.924,2.928,5.432c-5.847,6.259-17.125,12.107-30.071,12.107c-17.329,0-23.385-10.021-23.385-23.803V1211
	c0-4.384-0.207-4.799-3.969-4.799h-6.47c-2.297-0.837-2.925-5.014-1.253-6.474c6.472-2.298,12.317-6.056,17.329-9.396
	c3.757-2.714,8.976-7.098,15.447-16.285c1.464-0.837,5.225-0.627,6.266,1.043v15.66c0,3.967,0.209,4.174,3.967,4.174h18.581
	c1.049,0.834,1.67,2.092,1.67,3.969c0,2.295-0.623,6.054-2.712,7.309H1271.437L1271.437,1206.201z M1330.315,1228.959
	c-4.803,0-5.218,0.42-5.218,3.759c0,15.659,10.022,30.9,29.438,30.9c5.85,0,13.781-1.252,19.418-10.856
	c2.299-0.418,5.429,1.252,5.429,4.801c-8.559,17.748-24.014,23.805-36.536,23.805c-28.188,0-43.43-19.838-43.43-42.594
	c0-26.311,18.997-46.771,45.104-46.771c21.709,0,33.402,13.992,33.402,30.064c0,3.969-1.045,6.892-7.518,6.892H1330.315
	L1330.315,1228.959z M1344.099,1219.771c2.919,0,6.263-0.416,8.558-1.879c1.047-0.624,1.464-2.716,1.464-4.802
	c0-6.889-3.968-11.482-11.065-11.482c-8.771,0-16.288,8.353-16.288,15.034c0,2.92,2.925,3.129,9.609,3.129H1344.099z
	 M1470.835,1202.024c-6.057,0.834-9.189,1.668-12.529,3.756c-2.925,1.883-10.858,10.653-15.661,16.704
	c-2.505,3.341-3.965,5.22-3.965,6.265c0,1.253,2.503,5.43,4.383,8.143l14.198,21.089c7.518,10.856,11.482,12.739,18.584,13.569
	l2.295,0.208c1.671,1.465,1.671,6.478-0.625,7.311c-9.19-0.417-17.331-0.627-25.266-0.627c-8.351,0-18.165,0.21-27.77,0.627
	c-1.88-0.833-2.296-5.846-0.627-7.311l4.596-0.832c2.925-0.627,3.546-1.462,3.546-2.296c0-0.837-0.835-2.925-2.503-5.641
	c-2.923-4.593-5.639-8.976-8.978-13.777c-2.923,4.386-5.847,9.185-8.56,13.777c-1.669,2.923-2.506,4.804-2.506,6.058
	c0,1.044,0.837,1.673,3.759,2.087l3.339,0.624c1.671,1.256,1.255,6.478-0.418,7.311c-6.051-0.417-12.317-0.627-18.792-0.627
	c-4.801,0-9.81,0.21-16.283,0.627c-1.881-1.046-2.508-5.638-0.416-7.311l5.217-0.832c3.549-0.627,7.935-2.089,9.814-4.175
	c3.133-3.133,14.197-17.539,17.12-21.924c1.252-2.088,1.879-3.55,1.879-4.592c0-0.836-1.667-3.759-6.68-11.066l-11.278-17.329
	c-4.171-6.473-8.142-8.145-12.733-9.188l-4.384-1.045c-1.465-1.046-1.465-6.68,0.626-7.308c8.142,0.418,13.778,0.628,25.26,0.628
	c7.522,0,14.829-0.21,22.344-0.628c2.506,0.836,2.712,6.055,0.419,7.308l-2.504,0.626c-1.673,0.21-3.137,0.834-3.137,1.462
	c0,0.836,0.42,1.879,1.882,4.386c2.717,4.595,5.641,8.561,8.561,12.735c2.087-2.925,5.638-7.936,8.979-12.944
	c1.251-1.88,1.464-2.716,1.464-3.759c0-0.836-1.256-1.461-3.344-1.88l-2.298-0.626c-1.876-1.253-1.461-6.472,0.628-7.308
	c6.056,0.418,11.484,0.628,19,0.628c5.22,0,10.647-0.21,15.866-0.628c2.09,0.628,2.297,6.055,0.42,7.308L1470.835,1202.024z"/>
<path fill="#FFFFFF" d="M1145.437,1018.482c0.016,0.029,0.033,0.049,0.05,0.078l0.079,0.086
	C1145.52,1018.595,1145.482,1018.54,1145.437,1018.482z M1087.15,947.404l-0.006,0.007l-44.694,40.027l0.021,0.028h-0.021v62.842
	c0,31.157,25.252,56.41,56.405,56.41c30.967,0,56.104-24.944,56.406-55.84c5.318,1.656,10.965,2.553,16.823,2.553
	c31.154,0,56.409-25.254,56.409-56.408c0-11.107-3.211-21.458-8.749-30.185c28.998-2.338,51.811-26.615,51.811-56.225
	c0-29.583-22.776-53.846-51.75-56.22c5.501-8.703,8.688-19.022,8.688-30.084c0-31.15-25.255-56.407-56.409-56.407
	c-5.858,0-11.505,0.893-16.823,2.55c-0.246-30.936-25.408-55.939-56.406-55.939c-31.153,0-56.405,25.254-56.405,56.405v62.79
	l0.058,0.052l44.637,39.98l0.006,0.004V947.404L1087.15,947.404z M1133.075,770.917c0,6.575-1.856,12.721-5.073,17.934
	l-9.765,10.269l-11.845,12.453h-41.75v-40.653c0-18.894,15.313-34.217,34.213-34.217
	C1117.752,736.701,1133.075,752.024,1133.075,770.917z M1109.338,944.83v-68.433h105.809c18.898,0,34.219,15.321,34.219,34.215
	c0,18.897-15.32,34.218-34.219,34.218H1109.338L1109.338,944.83z M1064.643,1009.656h41.752l11.85,12.453l9.753,10.261
	c3.222,5.212,5.078,11.357,5.078,17.938c0,18.9-15.323,34.216-34.218,34.216c-18.901,0-34.215-15.315-34.215-34.216V1009.656
	L1064.643,1009.656z M1098.51,967.021h90.037c10.582,5.816,17.757,17.072,17.757,30.002c0,18.896-15.321,34.217-34.222,34.217
	c-8.81,0-16.843-3.332-22.907-8.805l-0.016-0.018c-1.286-1.156-2.488-2.417-3.583-3.764l-0.011-0.008l-0.079-0.086l-12.579-13.225
	l-16.423-17.272l-0.083-0.09l-0.488-0.508h-40.236L1098.51,967.021z M1075.766,833.76h40.147l0.475-0.495l0.094-0.104l16.421-17.268
	l12.597-13.241l0.89-0.939l0.01-0.006c0.571-0.652,1.176-1.281,1.792-1.881v-0.004c6.163-6.021,14.597-9.732,23.895-9.732
	c18.897,0,34.219,15.322,34.219,34.22c0,12.856-7.091,24.053-17.573,29.896h-90.135L1075.766,833.76z M1042.45,833.708v0.051h0.058
	L1042.45,833.708z M1042.45,833.708v0.051h0.058L1042.45,833.708z M1146.396,801.707l1.792-1.884
	C1147.571,800.422,1146.967,801.055,1146.396,801.707z M1145.576,1018.654c1.095,1.347,2.295,2.605,3.583,3.763L1145.576,1018.654z
	 M1087.145,873.74h0.006v2.657h-0.006V873.74z M1087.145,944.83v2.581l0.006-0.007v-2.574H1087.145z M916.945,1018.646l0.081-0.086
	c0.017-0.029,0.036-0.049,0.054-0.078C917.031,1018.54,916.989,1018.595,916.945,1018.646z M975.363,873.743l0.005-0.003
	l44.637-39.98l0.059-0.051v-62.792c0-31.151-25.252-56.406-56.408-56.406c-30.998,0-56.155,25.002-56.404,55.941
	c-5.315-1.658-10.966-2.552-16.822-2.552c-31.153,0-56.409,25.254-56.409,56.409c0,11.06,3.187,21.38,8.685,30.084
	c-28.97,2.373-51.745,26.637-51.745,56.219c0,29.609,22.809,53.887,51.809,56.226c-5.538,8.724-8.749,19.077-8.749,30.185
	c0,31.154,25.256,56.406,56.409,56.406c5.856,0,11.506-0.895,16.822-2.551c0.303,30.896,25.439,55.84,56.404,55.84
	c31.156,0,56.408-25.253,56.408-56.41v-62.843h-0.02l0.02-0.027l-44.695-40.029l-0.005-0.007V873.743L975.363,873.743z
	 M963.656,736.701c18.901,0,34.217,15.322,34.217,34.216v40.655h-41.754l-11.846-12.453l-9.761-10.27
	c-3.22-5.213-5.072-11.357-5.072-17.932C929.44,752.024,944.76,736.701,963.656,736.701z M847.369,944.83
	c-18.898,0-34.22-15.321-34.22-34.218c0-18.895,15.322-34.215,34.22-34.215h105.804v68.433H847.369z M997.873,1050.309
	c0,18.9-15.316,34.216-34.22,34.216c-18.894,0-34.213-15.315-34.213-34.216c0-6.581,1.852-12.727,5.075-17.938l9.754-10.259
	l11.85-12.455h41.754V1050.309L997.873,1050.309z M986.834,987.466H946.6l-0.488,0.507l-0.084,0.09l-16.422,17.272l-12.58,13.225
	l-0.081,0.086l-0.01,0.008c-1.095,1.347-2.295,2.607-3.582,3.764l-0.012,0.015c-6.07,5.476-14.101,8.808-22.914,8.808
	c-18.898,0-34.215-15.32-34.215-34.217c0-12.927,7.174-24.186,17.751-30.002h90.04L986.834,987.466z M963.916,854.205h-90.134
	c-10.479-5.843-17.57-17.042-17.57-29.896c0-18.897,15.319-34.22,34.218-34.22c9.296,0,17.727,3.71,23.893,9.732v0.004
	c0.622,0.596,1.22,1.229,1.794,1.881l0.008,0.006l0.89,0.939l12.593,13.241l16.419,17.268l0.099,0.103l0.474,0.496h40.143
	L963.916,854.205z M1020.063,833.708v0.051h-0.059L1020.063,833.708z M1020.063,833.708v0.051h-0.059L1020.063,833.708z
	 M916.117,801.707l-1.797-1.884C914.942,800.422,915.542,801.055,916.117,801.707z M916.935,1018.654
	c-1.093,1.347-2.295,2.605-3.582,3.763L916.935,1018.654z M975.363,873.74h0.005v2.657h-0.005V873.74z M975.368,944.83v2.581
	l-0.005-0.007v-2.574H975.368z"/>
</svg>
